<?xml version="1.0" encoding="utf-8"?>
<!DOCTYPE svg PUBLIC "-//W3C//DTD SVG 1.0//EN" "http://www.w3.org/TR/2001/REC-SVG-20010904/DTD/svg10.dtd">
<svg version="1.0" xmlns="http://www.w3.org/2000/svg" width="4201px" height="1800px" viewBox="0 0 4201 1800" preserveAspectRatio="xMidYMid meet">
 <g fill="#000000">
  <path d="M0 900.21 l0 -900.21 2100.50 0 2100.50 0 0 900.21 0 900.21 -2100.50 0 -2100.50 0 0 -900.21z m3868.78 0 l0 -827.88 -1898.22 0 -1898.22 0 0 247.83 0 247.83 282.12 0.54 281.85 0.80 0.80 579.51 0.54 579.24 1615.56 0 1615.56 0 0 -827.88z"/>
  <path d="M2807.81 1506.25 l0 -157.27 -28.67 -29.47 -28.94 -29.47 -0.80 184.33 -0.54 184.06 -1024.80 0 -1024.80 0 0 -577.37 0 -577.37 -281.32 0 -281.32 0 0 -183.53 0 -183.53 1306.11 0 1306.11 0 0.54 186.21 0.80 186.47 28.94 -27.06 28.67 -27.33 0 -157.81 0 -157.81 499.40 0 499.67 0 0.80 191.03 c0.54 104.76 1.34 447.96 1.61 762.23 l0.80 571.21 -501.28 0 -501.01 0 0 -157.54z m908.25 -20.63 l0 -87.07 -327.40 -0.54 -327.67 -0.80 -1.34 -112.79 -1.34 -112.53 -113.87 -107.17 c-62.69 -58.94 -125.65 -117.89 -139.85 -131.28 -21.97 -20.09 -25.99 -25.18 -26.26 -32.15 0 -7.23 13.66 -20.63 140.66 -138.78 l140.66 -130.48 0 -106.63 0 -106.63 12.32 -1.88 c6.97 -0.80 154.59 -1.61 328.20 -1.61 l315.88 0 0 -92.43 0 -92.43 -408.58 0 -408.58 0 -0.27 137.44 -0.27 137.18 -40.46 38.85 c-22.51 21.43 -72.34 69.39 -110.92 106.36 -64.84 62.43 -71 67.78 -79.84 67.78 l-9.38 0 0 -245.15 0 -245.15 -1215.02 0 -1215.02 0 0 92.43 0 92.43 281.32 0 281.32 0 0 577.37 0 577.37 103.15 0 103.15 0 0 -577.37 0 -577.37 504.50 0 504.23 0.27 16.34 25.99 c9.11 14.20 28.94 45.55 44.21 69.66 l27.86 43.94 0.80 -69.93 0.54 -69.93 191.56 0 191.56 0 0 490.30 0 490.30 -185.40 0 -185.67 0 -48.23 -78.77 -48.23 -78.77 -0.80 78.77 -0.54 78.77 -446.09 0 -446.09 0 0 86.81 0 86.81 49.03 1.61 c26.79 1.07 373.21 1.61 769.47 1.07 l720.71 -0.80 0.80 -244.34 0.54 -244.61 9.11 0 c8.31 0 18.22 9.11 120.56 109.31 l111.46 109.04 0 137.44 0 137.18 408.58 0 408.58 0 0 -87.07z m-1784.35 -371.07 l0 -174.15 9.11 0 c9.11 0 9.65 0.80 66.98 89.22 68.59 105.83 101.54 157 138.78 215.41 l27.60 43.67 91.90 0 91.63 0 0 -385.81 0 -385.81 -92.43 0 -92.43 0 0 170.13 0 170.13 -8.57 0 c-9.91 0 -6.97 4.29 -163.43 -237.11 l-67.78 -104.49 -85.20 -0.80 -84.93 -0.54 0 387.15 0 387.15 84.40 0 84.40 0 0 -174.15z m-267.92 79.04 l0 -89.75 -171.47 0 -171.47 0 0 -61.62 0 -61.62 171.47 0 171.47 0 0 -81.72 0 -81.72 -171.47 0 -171.47 0 0 -61.62 0 -61.62 171.47 0 171.47 0 0 -89.75 0 -89.75 -273.28 0 -273.28 0 0 384.47 0 384.47 273.28 0 273.28 0 0 -89.75z m2052.27 0 l0 -89.75 -170.13 0 -170.13 0 0 -61.62 0 -61.62 170.13 0 170.13 0 0 -81.72 0 -81.72 -170.13 0 -170.13 0 0 -61.62 0 -61.62 170.13 0 170.13 0 0 -89.75 0 -89.75 -270.60 0 -270.60 0 0 105.29 0 105.03 -86.27 79.30 c-47.69 43.67 -91.09 83.32 -96.99 88.41 l-10.18 8.84 10.18 9.38 c5.89 5.09 49.30 44.74 96.99 88.41 l86.27 79.04 0 102.61 0 102.61 270.60 0 270.60 0 0 -89.75z"/>
 </g>
 <g fill="#ffffff">
  <path d="M629.08 1156.88 l-0.80 -579.51 -281.32 -0.54 -281.32 -0.80 -0.80 -255.86 -0.54 -255.86 1906.26 0 1906.26 0 0 835.91 0 835.91 -1623.60 0 -1623.60 0 -0.54 -579.24z m3171.92 -235.77 c-1.07 -404.29 -1.88 -743.75 -1.88 -754.20 l0 -19.56 -491.63 0 -491.63 0 0 157.54 0.27 157.27 -36.97 35.37 -36.97 35.10 -0.80 -193.97 -0.54 -193.97 -1298.08 0 -1298.08 0 0 175.49 0 175.49 281.32 0 281.32 0 0 577.37 0 577.37 1016.76 0 1016.76 0 0 -191.56 c0 -105.29 0.54 -191.56 1.34 -191.56 0.80 0 17.68 16.34 37.51 36.44 l36.17 36.44 0 157.81 0 157.81 493.24 0 493.51 0 -1.61 -734.64z"/>
  <path d="M2890.87 1443.56 l0 -137.44 -111.99 -109.58 -111.72 -109.58 -1.34 244.88 -1.34 244.88 -728.74 0.80 c-400.81 0.54 -750.71 0 -777.51 -1.07 l-49.03 -1.61 0 -94.84 0 -94.84 446.09 0 446.09 0 0 -92.97 0 -93.24 8.84 14.20 c4.55 7.77 30.28 49.57 56.80 92.97 l48.23 79.04 177.63 0 177.36 0 0 -482.26 0 -482.26 -183.53 0 -183.53 0 0 82.25 c0 50.90 -1.07 81.18 -2.41 79.84 -2.41 -2.41 -37.51 -57.07 -87.07 -135.84 l-16.34 -25.99 -496.19 -0.27 -496.46 0 0 577.37 0 577.37 -111.19 0 -111.19 0 0 -577.37 0 -577.37 -281.32 0 -281.32 0 0 -100.47 0 -100.47 1223.06 0 1223.06 0 0 245.42 0 245.68 7.77 -6.43 c4.29 -3.48 54.92 -51.71 112.53 -106.90 l104.49 -100.47 0 -137.18 0.27 -137.44 411.26 -0.54 c226.13 -0.27 413.40 -0.54 416.08 -0.54 4.29 -0.27 4.55 6.43 5.36 101.01 l0.54 101.01 -315.61 0 c-173.88 0 -321.51 0.80 -328.47 1.61 l-12.32 1.88 0 106.63 0 106.63 -140.66 130.75 c-109.04 101.01 -139.85 131.28 -137.44 133.42 10.98 9.91 96.72 90.29 180.31 168.79 l96.45 90.83 1.34 112.53 1.34 112.79 327.67 0.80 327.40 0.54 0 95.11 0 95.11 -416.62 0 -416.62 0 0 -137.18z"/>
  <path d="M1754.88 901.55 l0 -395.18 92.97 0.54 93.24 0.80 92.43 142.27 c50.90 78.50 101.27 155.66 111.72 171.47 l19.56 29.20 0 -170.67 0 -170.93 100.47 0 100.47 0 0 393.84 0 393.84 -99.67 0 -99.93 0 -27.60 -43.67 c-37.24 -58.41 -70.20 -109.58 -139.32 -216.21 l-58.14 -89.75 -0.80 174.95 -0.54 174.68 -92.43 0 -92.43 0 0 -395.18z"/>
  <path d="M1109.19 898.87 l0 -392.50 281.32 0 281.32 0 0 97.79 0 97.79 -171.47 0 -171.47 0 0 53.58 0 53.58 171.47 0 171.47 0 0 89.75 0 89.75 -171.47 0 -171.47 0 0 53.58 0 53.58 171.47 0 171.47 0 0 97.79 0 97.79 -281.32 0 -281.32 0 0 -392.50z"/>
  <path d="M3166.83 1188.77 l0 -102.88 -27.60 -25.18 c-15.27 -13.93 -60.55 -55.19 -100.74 -92.16 l-73.14 -66.71 13.13 -12.32 c6.97 -6.70 52.51 -48.23 100.74 -92.43 l87.61 -80.38 0 -105.03 0 -105.29 278.64 0 278.64 0 0 97.79 0 97.79 -170.13 0 -170.13 0 0 53.58 0 53.58 170.13 0 170.13 0 0 89.75 0 89.75 -170.13 0 -170.13 0 0 53.58 0 53.58 170.13 0 170.13 0 0 97.79 0 97.79 -278.64 0 -278.64 0 0 -102.61z"/>
 </g>
</svg>
